<mxfile host="app.diagrams.net" agent="Mozilla/5.0 (Windows NT 10.0; Win64; x64) AppleWebKit/537.36 (KHTML, like Gecko) Chrome/140.0.0.0 Safari/537.36" version="28.2.2">
  <diagram name="PÃ¡gina-1" id="fsm_pMftsFs9dB8g3S8y">
    <mxGraphModel dx="1427" dy="742" grid="1" gridSize="10" guides="1" tooltips="1" connect="1" arrows="1" fold="1" page="1" pageScale="1" pageWidth="827" pageHeight="1169" math="0" shadow="0">
      <root>
        <mxCell id="0" />
        <mxCell id="1" parent="0" />
        <mxCell id="MW2aj3eqwhdiObpjyfyX-9" value="ClienteIndividual" style="swimlane;fontStyle=0;childLayout=stackLayout;horizontal=1;startSize=26;fillColor=none;horizontalStack=0;resizeParent=1;resizeParentMax=0;resizeLast=0;collapsible=1;marginBottom=0;whiteSpace=wrap;html=1;" parent="1" vertex="1">
          <mxGeometry x="320.4" y="80" width="160" height="80" as="geometry" />
        </mxCell>
        <mxCell id="MW2aj3eqwhdiObpjyfyX-10" value="- nombre: String&lt;div&gt;- apellido: String&lt;/div&gt;&lt;div&gt;- dni: String&lt;/div&gt;" style="text;strokeColor=none;fillColor=none;align=left;verticalAlign=top;spacingLeft=4;spacingRight=4;overflow=hidden;rotatable=0;points=[[0,0.5],[1,0.5]];portConstraint=eastwest;whiteSpace=wrap;html=1;" parent="MW2aj3eqwhdiObpjyfyX-9" vertex="1">
          <mxGeometry y="26" width="160" height="54" as="geometry" />
        </mxCell>
        <mxCell id="MW2aj3eqwhdiObpjyfyX-14" value="ClienteEmpresa" style="swimlane;fontStyle=0;childLayout=stackLayout;horizontal=1;startSize=26;fillColor=none;horizontalStack=0;resizeParent=1;resizeParentMax=0;resizeLast=0;collapsible=1;marginBottom=0;whiteSpace=wrap;html=1;" parent="1" vertex="1">
          <mxGeometry x="320.4" y="200" width="160" height="70" as="geometry" />
        </mxCell>
        <mxCell id="MW2aj3eqwhdiObpjyfyX-15" value="- nombreFantasia: String&lt;div&gt;- cuit: String&lt;/div&gt;" style="text;strokeColor=none;fillColor=none;align=left;verticalAlign=top;spacingLeft=4;spacingRight=4;overflow=hidden;rotatable=0;points=[[0,0.5],[1,0.5]];portConstraint=eastwest;whiteSpace=wrap;html=1;" parent="MW2aj3eqwhdiObpjyfyX-14" vertex="1">
          <mxGeometry y="26" width="160" height="44" as="geometry" />
        </mxCell>
        <mxCell id="MW2aj3eqwhdiObpjyfyX-22" value="Cuenta" style="swimlane;fontStyle=1;align=center;verticalAlign=top;childLayout=stackLayout;horizontal=1;startSize=26;horizontalStack=0;resizeParent=1;resizeParentMax=0;resizeLast=0;collapsible=1;marginBottom=0;whiteSpace=wrap;html=1;" parent="1" vertex="1">
          <mxGeometry x="10" y="440" width="250" height="170" as="geometry" />
        </mxCell>
        <mxCell id="MW2aj3eqwhdiObpjyfyX-23" value="- numeroCuenta: int&lt;div&gt;&lt;div&gt;- cliente: Cliente&lt;/div&gt;&lt;div&gt;&lt;span style=&quot;background-color: transparent; color: light-dark(rgb(0, 0, 0), rgb(255, 255, 255));&quot;&gt;- saldo: double&lt;/span&gt;&lt;/div&gt;&lt;div&gt;- tipoCambio: String&lt;/div&gt;&lt;/div&gt;" style="text;strokeColor=none;fillColor=none;align=left;verticalAlign=top;spacingLeft=4;spacingRight=4;overflow=hidden;rotatable=0;points=[[0,0.5],[1,0.5]];portConstraint=eastwest;whiteSpace=wrap;html=1;" parent="MW2aj3eqwhdiObpjyfyX-22" vertex="1">
          <mxGeometry y="26" width="250" height="74" as="geometry" />
        </mxCell>
        <mxCell id="MW2aj3eqwhdiObpjyfyX-24" value="" style="line;strokeWidth=1;fillColor=none;align=left;verticalAlign=middle;spacingTop=-1;spacingLeft=3;spacingRight=3;rotatable=0;labelPosition=right;points=[];portConstraint=eastwest;strokeColor=inherit;" parent="MW2aj3eqwhdiObpjyfyX-22" vertex="1">
          <mxGeometry y="100" width="250" height="8" as="geometry" />
        </mxCell>
        <mxCell id="MW2aj3eqwhdiObpjyfyX-25" value="+ depositarEfectivo(double monto): void&lt;div&gt;+ extraerEfectivo(double monto): void&lt;/div&gt;&lt;div&gt;+ informarTipoCuenta(): void&lt;br&gt;&lt;div&gt;&lt;br&gt;&lt;/div&gt;&lt;/div&gt;" style="text;strokeColor=none;fillColor=none;align=left;verticalAlign=top;spacingLeft=4;spacingRight=4;overflow=hidden;rotatable=0;points=[[0,0.5],[1,0.5]];portConstraint=eastwest;whiteSpace=wrap;html=1;" parent="MW2aj3eqwhdiObpjyfyX-22" vertex="1">
          <mxGeometry y="108" width="250" height="62" as="geometry" />
        </mxCell>
        <mxCell id="MW2aj3eqwhdiObpjyfyX-28" value="CajaAhorro" style="swimlane;fontStyle=1;align=center;verticalAlign=top;childLayout=stackLayout;horizontal=1;startSize=26;horizontalStack=0;resizeParent=1;resizeParentMax=0;resizeLast=0;collapsible=1;marginBottom=0;whiteSpace=wrap;html=1;" parent="1" vertex="1">
          <mxGeometry x="320" y="440" width="240" height="88" as="geometry" />
        </mxCell>
        <mxCell id="MW2aj3eqwhdiObpjyfyX-29" value="&lt;div&gt;- tasaInteres: double&lt;/div&gt;" style="text;strokeColor=none;fillColor=none;align=left;verticalAlign=top;spacingLeft=4;spacingRight=4;overflow=hidden;rotatable=0;points=[[0,0.5],[1,0.5]];portConstraint=eastwest;whiteSpace=wrap;html=1;" parent="MW2aj3eqwhdiObpjyfyX-28" vertex="1">
          <mxGeometry y="26" width="240" height="24" as="geometry" />
        </mxCell>
        <mxCell id="MW2aj3eqwhdiObpjyfyX-30" value="" style="line;strokeWidth=1;fillColor=none;align=left;verticalAlign=middle;spacingTop=-1;spacingLeft=3;spacingRight=3;rotatable=0;labelPosition=right;points=[];portConstraint=eastwest;strokeColor=inherit;" parent="MW2aj3eqwhdiObpjyfyX-28" vertex="1">
          <mxGeometry y="50" width="240" height="8" as="geometry" />
        </mxCell>
        <mxCell id="MW2aj3eqwhdiObpjyfyX-31" value="&lt;div&gt;&lt;span style=&quot;background-color: transparent; color: light-dark(rgb(0, 0, 0), rgb(255, 255, 255));&quot;&gt;+ cobrarInteres(double tasaInteres): void&lt;/span&gt;&lt;/div&gt;" style="text;strokeColor=none;fillColor=none;align=left;verticalAlign=top;spacingLeft=4;spacingRight=4;overflow=hidden;rotatable=0;points=[[0,0.5],[1,0.5]];portConstraint=eastwest;whiteSpace=wrap;html=1;" parent="MW2aj3eqwhdiObpjyfyX-28" vertex="1">
          <mxGeometry y="58" width="240" height="30" as="geometry" />
        </mxCell>
        <mxCell id="MW2aj3eqwhdiObpjyfyX-32" value="CuentaCorriente" style="swimlane;fontStyle=1;align=center;verticalAlign=top;childLayout=stackLayout;horizontal=1;startSize=26;horizontalStack=0;resizeParent=1;resizeParentMax=0;resizeLast=0;collapsible=1;marginBottom=0;whiteSpace=wrap;html=1;" parent="1" vertex="1">
          <mxGeometry x="320" y="560" width="240" height="130" as="geometry" />
        </mxCell>
        <mxCell id="MW2aj3eqwhdiObpjyfyX-33" value="&lt;div&gt;- montoAut:&amp;nbsp;&lt;span style=&quot;background-color: transparent; color: light-dark(rgb(0, 0, 0), rgb(255, 255, 255));&quot;&gt;double&lt;/span&gt;&lt;/div&gt;&lt;div&gt;&lt;span style=&quot;background-color: transparent; color: light-dark(rgb(0, 0, 0), rgb(255, 255, 255));&quot;&gt;- chequesDepositados: &amp;lt;Cheque&amp;gt;&lt;/span&gt;&lt;/div&gt;" style="text;strokeColor=none;fillColor=none;align=left;verticalAlign=top;spacingLeft=4;spacingRight=4;overflow=hidden;rotatable=0;points=[[0,0.5],[1,0.5]];portConstraint=eastwest;whiteSpace=wrap;html=1;" parent="MW2aj3eqwhdiObpjyfyX-32" vertex="1">
          <mxGeometry y="26" width="240" height="44" as="geometry" />
        </mxCell>
        <mxCell id="MW2aj3eqwhdiObpjyfyX-34" value="" style="line;strokeWidth=1;fillColor=none;align=left;verticalAlign=middle;spacingTop=-1;spacingLeft=3;spacingRight=3;rotatable=0;labelPosition=right;points=[];portConstraint=eastwest;strokeColor=inherit;" parent="MW2aj3eqwhdiObpjyfyX-32" vertex="1">
          <mxGeometry y="70" width="240" height="10" as="geometry" />
        </mxCell>
        <mxCell id="MW2aj3eqwhdiObpjyfyX-35" value="&lt;div&gt;+ depositarCheque(Cheque cheque): void&lt;/div&gt;&lt;div&gt;+ mostrarChequesDepositados(): void&lt;/div&gt;&lt;div&gt;&lt;br&gt;&lt;/div&gt;&lt;div&gt;&lt;br&gt;&lt;/div&gt;" style="text;strokeColor=none;fillColor=none;align=left;verticalAlign=top;spacingLeft=4;spacingRight=4;overflow=hidden;rotatable=0;points=[[0,0.5],[1,0.5]];portConstraint=eastwest;whiteSpace=wrap;html=1;" parent="MW2aj3eqwhdiObpjyfyX-32" vertex="1">
          <mxGeometry y="80" width="240" height="50" as="geometry" />
        </mxCell>
        <mxCell id="MW2aj3eqwhdiObpjyfyX-36" value="CuentaConvertibilidad" style="swimlane;fontStyle=1;align=center;verticalAlign=top;childLayout=stackLayout;horizontal=1;startSize=26;horizontalStack=0;resizeParent=1;resizeParentMax=0;resizeLast=0;collapsible=1;marginBottom=0;whiteSpace=wrap;html=1;" parent="1" vertex="1">
          <mxGeometry x="310" y="780" width="290" height="130" as="geometry">
            <mxRectangle x="580" y="480" width="160" height="30" as="alternateBounds" />
          </mxGeometry>
        </mxCell>
        <mxCell id="MW2aj3eqwhdiObpjyfyX-37" value="- saldoDolar: double" style="text;strokeColor=none;fillColor=none;align=left;verticalAlign=top;spacingLeft=4;spacingRight=4;overflow=hidden;rotatable=0;points=[[0,0.5],[1,0.5]];portConstraint=eastwest;whiteSpace=wrap;html=1;" parent="MW2aj3eqwhdiObpjyfyX-36" vertex="1">
          <mxGeometry y="26" width="290" height="24" as="geometry" />
        </mxCell>
        <mxCell id="MW2aj3eqwhdiObpjyfyX-38" value="" style="line;strokeWidth=1;fillColor=none;align=left;verticalAlign=middle;spacingTop=-1;spacingLeft=3;spacingRight=3;rotatable=0;labelPosition=right;points=[];portConstraint=eastwest;strokeColor=inherit;" parent="MW2aj3eqwhdiObpjyfyX-36" vertex="1">
          <mxGeometry y="50" width="290" height="8" as="geometry" />
        </mxCell>
        <mxCell id="MW2aj3eqwhdiObpjyfyX-39" value="&lt;div&gt;+ depositarDolares(double monto): void&lt;/div&gt;&lt;div&gt;+ extraerDolares(double monto): void&lt;/div&gt;+ convertirPesosADolares(double cotizacion): void&lt;br&gt;&lt;div&gt;&lt;span style=&quot;background-color: transparent; color: light-dark(rgb(0, 0, 0), rgb(255, 255, 255));&quot;&gt;+ convertirDolaresAPesos&lt;/span&gt;&lt;span style=&quot;background-color: transparent; color: light-dark(rgb(0, 0, 0), rgb(255, 255, 255));&quot;&gt;(double cotizacion): void&lt;/span&gt;&lt;/div&gt;" style="text;strokeColor=none;fillColor=none;align=left;verticalAlign=top;spacingLeft=4;spacingRight=4;overflow=hidden;rotatable=0;points=[[0,0.5],[1,0.5]];portConstraint=eastwest;whiteSpace=wrap;html=1;" parent="MW2aj3eqwhdiObpjyfyX-36" vertex="1">
          <mxGeometry y="58" width="290" height="72" as="geometry" />
        </mxCell>
        <mxCell id="MW2aj3eqwhdiObpjyfyX-40" value="Cheque" style="swimlane;fontStyle=1;align=center;verticalAlign=top;childLayout=stackLayout;horizontal=1;startSize=26;horizontalStack=0;resizeParent=1;resizeParentMax=0;resizeLast=0;collapsible=1;marginBottom=0;whiteSpace=wrap;html=1;" parent="1" vertex="1">
          <mxGeometry x="620" y="560" width="180" height="90" as="geometry" />
        </mxCell>
        <mxCell id="MW2aj3eqwhdiObpjyfyX-82" value="" style="endArrow=block;dashed=1;endFill=0;endSize=12;html=1;rounded=0;" parent="MW2aj3eqwhdiObpjyfyX-40" edge="1">
          <mxGeometry width="160" relative="1" as="geometry">
            <mxPoint x="-60" y="12.600000000000023" as="sourcePoint" />
            <mxPoint y="13" as="targetPoint" />
          </mxGeometry>
        </mxCell>
        <mxCell id="MW2aj3eqwhdiObpjyfyX-41" value="&lt;div&gt;&lt;span style=&quot;background-color: transparent; color: light-dark(rgb(0, 0, 0), rgb(255, 255, 255));&quot;&gt;- monto:&amp;nbsp;&lt;/span&gt;&lt;span style=&quot;background-color: transparent; color: light-dark(rgb(0, 0, 0), rgb(255, 255, 255));&quot;&gt;double&lt;/span&gt;&lt;/div&gt;&lt;div&gt;&lt;span style=&quot;background-color: transparent; color: light-dark(rgb(0, 0, 0), rgb(255, 255, 255));&quot;&gt;- bancoEmisor: String&lt;/span&gt;&lt;/div&gt;&lt;div&gt;&lt;span style=&quot;background-color: transparent; color: light-dark(rgb(0, 0, 0), rgb(255, 255, 255));&quot;&gt;- fechaPago: LocalDate&lt;/span&gt;&lt;/div&gt;" style="text;strokeColor=none;fillColor=none;align=left;verticalAlign=top;spacingLeft=4;spacingRight=4;overflow=hidden;rotatable=0;points=[[0,0.5],[1,0.5]];portConstraint=eastwest;whiteSpace=wrap;html=1;" parent="MW2aj3eqwhdiObpjyfyX-40" vertex="1">
          <mxGeometry y="26" width="180" height="64" as="geometry" />
        </mxCell>
        <mxCell id="MW2aj3eqwhdiObpjyfyX-59" value="" style="endArrow=none;html=1;edgeStyle=orthogonalEdgeStyle;rounded=0;exitX=0.521;exitY=1.069;exitDx=0;exitDy=0;exitPerimeter=0;entryX=0.5;entryY=0;entryDx=0;entryDy=0;" parent="1" source="TLuOb5inWZFKZ-0laLK9-4" target="MW2aj3eqwhdiObpjyfyX-22" edge="1">
          <mxGeometry relative="1" as="geometry">
            <mxPoint x="119.51999999999998" y="249.42399999999998" as="sourcePoint" />
            <mxPoint x="200" y="330" as="targetPoint" />
            <Array as="points">
              <mxPoint x="119" y="440" />
            </Array>
          </mxGeometry>
        </mxCell>
        <mxCell id="MW2aj3eqwhdiObpjyfyX-60" value="1" style="edgeLabel;resizable=0;html=1;align=left;verticalAlign=bottom;" parent="MW2aj3eqwhdiObpjyfyX-59" connectable="0" vertex="1">
          <mxGeometry x="-1" relative="1" as="geometry">
            <mxPoint y="28" as="offset" />
          </mxGeometry>
        </mxCell>
        <mxCell id="MW2aj3eqwhdiObpjyfyX-61" value="n" style="edgeLabel;resizable=0;html=1;align=right;verticalAlign=bottom;" parent="MW2aj3eqwhdiObpjyfyX-59" connectable="0" vertex="1">
          <mxGeometry x="1" relative="1" as="geometry">
            <mxPoint x="-10" y="-10" as="offset" />
          </mxGeometry>
        </mxCell>
        <mxCell id="MW2aj3eqwhdiObpjyfyX-74" value="Extends" style="endArrow=block;endSize=16;endFill=0;html=1;rounded=0;" parent="1" edge="1" target="MW2aj3eqwhdiObpjyfyX-35">
          <mxGeometry width="160" relative="1" as="geometry">
            <mxPoint x="440" y="780" as="sourcePoint" />
            <mxPoint x="440" y="700" as="targetPoint" />
          </mxGeometry>
        </mxCell>
        <mxCell id="MW2aj3eqwhdiObpjyfyX-75" value="Extends" style="endArrow=block;endSize=16;endFill=0;html=1;rounded=0;entryX=1;entryY=0.5;entryDx=0;entryDy=0;" parent="1" target="MW2aj3eqwhdiObpjyfyX-23" edge="1">
          <mxGeometry width="160" relative="1" as="geometry">
            <mxPoint x="320" y="460" as="sourcePoint" />
            <mxPoint x="250" y="460" as="targetPoint" />
          </mxGeometry>
        </mxCell>
        <mxCell id="MW2aj3eqwhdiObpjyfyX-77" value="Extends" style="endArrow=block;endSize=16;endFill=0;html=1;rounded=0;entryX=1.007;entryY=0.559;entryDx=0;entryDy=0;entryPerimeter=0;" parent="1" target="MW2aj3eqwhdiObpjyfyX-23" edge="1">
          <mxGeometry width="160" relative="1" as="geometry">
            <mxPoint x="320" y="582" as="sourcePoint" />
            <mxPoint x="240" y="580" as="targetPoint" />
          </mxGeometry>
        </mxCell>
        <mxCell id="MW2aj3eqwhdiObpjyfyX-78" value="Extends" style="endArrow=block;endSize=16;endFill=0;html=1;rounded=0;entryX=0.997;entryY=0.358;entryDx=0;entryDy=0;entryPerimeter=0;exitX=0;exitY=0.25;exitDx=0;exitDy=0;" parent="1" source="MW2aj3eqwhdiObpjyfyX-9" edge="1">
          <mxGeometry width="160" relative="1" as="geometry">
            <mxPoint x="220" y="119.71" as="sourcePoint" />
            <mxPoint x="199.51999999999998" y="192.22000000000003" as="targetPoint" />
          </mxGeometry>
        </mxCell>
        <mxCell id="MW2aj3eqwhdiObpjyfyX-80" value="Extends" style="endArrow=block;endSize=16;endFill=0;html=1;rounded=0;entryX=1;entryY=0.5;entryDx=0;entryDy=0;exitX=0;exitY=0.185;exitDx=0;exitDy=0;exitPerimeter=0;" parent="1" source="MW2aj3eqwhdiObpjyfyX-14" edge="1">
          <mxGeometry width="160" relative="1" as="geometry">
            <mxPoint x="290" y="220" as="sourcePoint" />
            <mxPoint x="200" y="218" as="targetPoint" />
          </mxGeometry>
        </mxCell>
        <mxCell id="MW2aj3eqwhdiObpjyfyX-81" value="" style="endArrow=block;dashed=1;endFill=0;endSize=12;html=1;rounded=0;exitX=1.007;exitY=0.955;exitDx=0;exitDy=0;exitPerimeter=0;entryX=0.389;entryY=1.043;entryDx=0;entryDy=0;entryPerimeter=0;" parent="1" source="MW2aj3eqwhdiObpjyfyX-37" edge="1" target="MW2aj3eqwhdiObpjyfyX-41">
          <mxGeometry width="160" relative="1" as="geometry">
            <mxPoint x="540" y="840" as="sourcePoint" />
            <mxPoint x="690" y="660" as="targetPoint" />
            <Array as="points">
              <mxPoint x="690" y="829" />
            </Array>
          </mxGeometry>
        </mxCell>
        <mxCell id="TLuOb5inWZFKZ-0laLK9-1" value="Cliente" style="swimlane;fontStyle=1;align=center;verticalAlign=top;childLayout=stackLayout;horizontal=1;startSize=26;horizontalStack=0;resizeParent=1;resizeParentMax=0;resizeLast=0;collapsible=1;marginBottom=0;whiteSpace=wrap;html=1;" parent="1" vertex="1">
          <mxGeometry x="30" y="160" width="170" height="90" as="geometry" />
        </mxCell>
        <mxCell id="TLuOb5inWZFKZ-0laLK9-2" value="- numeroCliente: int" style="text;strokeColor=none;fillColor=none;align=left;verticalAlign=top;spacingLeft=4;spacingRight=4;overflow=hidden;rotatable=0;points=[[0,0.5],[1,0.5]];portConstraint=eastwest;whiteSpace=wrap;html=1;" parent="TLuOb5inWZFKZ-0laLK9-1" vertex="1">
          <mxGeometry y="26" width="170" height="26" as="geometry" />
        </mxCell>
        <mxCell id="TLuOb5inWZFKZ-0laLK9-3" value="" style="line;strokeWidth=1;fillColor=none;align=left;verticalAlign=middle;spacingTop=-1;spacingLeft=3;spacingRight=3;rotatable=0;labelPosition=right;points=[];portConstraint=eastwest;strokeColor=inherit;" parent="TLuOb5inWZFKZ-0laLK9-1" vertex="1">
          <mxGeometry y="52" width="170" height="8" as="geometry" />
        </mxCell>
        <mxCell id="TLuOb5inWZFKZ-0laLK9-4" value="+ informarTipoDeClase(): void" style="text;strokeColor=none;fillColor=none;align=left;verticalAlign=top;spacingLeft=4;spacingRight=4;overflow=hidden;rotatable=0;points=[[0,0.5],[1,0.5]];portConstraint=eastwest;whiteSpace=wrap;html=1;" parent="TLuOb5inWZFKZ-0laLK9-1" vertex="1">
          <mxGeometry y="60" width="170" height="30" as="geometry" />
        </mxCell>
      </root>
    </mxGraphModel>
  </diagram>
</mxfile>
